<svg xmlns="http://www.w3.org/2000/svg" xmlns:xlink="http://www.w3.org/1999/xlink"><defs>
        <clipPath id="a">
            <path fill="#fff" transform="rotate(90 17.5 58.5)" d="M0 0h70v24H0z"/>
        </clipPath>
    </defs><symbol id="arrow-right" viewBox="0 0 92 62"><g fill="none">
    <path d="M40 52.213a29.836 29.836 0 0 0 15.297 8.21 29.76 29.76 0 0 0 17.26-1.707 29.902 29.902 0 0 0 13.408-11.049A30.089 30.089 0 0 0 91 31a30.089 30.089 0 0 0-5.035-16.667 29.902 29.902 0 0 0-13.407-11.05 29.76 29.76 0 0 0-17.262-1.707A29.837 29.837 0 0 0 40 9.786" stroke="currentColor" stroke-width="2" stroke-linecap="round"/>
    <path d="M5 31h60M58 24l7 7-7 7" stroke="currentColor" stroke-width="2" stroke-linecap="round" stroke-linejoin="round"/>
</g></symbol><symbol id="close"><g fill="none">
    <circle cx="30" cy="30" r="30" fill="#1F1E1E"/>
    <path d="M36 24 24 36M24 24l12 12" stroke="#fff" stroke-width="2" stroke-linecap="round" stroke-linejoin="round"/>
</g></symbol><symbol id="hide"><g fill="none">
    <path d="M42.787 81a29.836 29.836 0 0 0-8.21 15.297 29.76 29.76 0 0 0 1.707 17.261 29.903 29.903 0 0 0 11.049 13.407A30.087 30.087 0 0 0 64 132a30.087 30.087 0 0 0 16.667-5.035 29.903 29.903 0 0 0 11.05-13.407 29.76 29.76 0 0 0 1.707-17.262A29.836 29.836 0 0 0 85.214 81" stroke="#1F1E1E" stroke-width="2" stroke-linecap="round"/>
    <g clip-path="url(#a)" stroke="#1F1E1E" stroke-width="2" stroke-linecap="round" stroke-linejoin="round">
        <path d="M64 46v60M71 99l-7 7-7-7"/>
    </g>
    <path d="M8.984 18V6.578h8.774V18h-1.86V8.172H10.86V18H8.984Zm19.266-4.344c0 .719-.094 1.357-.281 1.914a3.834 3.834 0 0 1-.82 1.414c-.36.38-.792.672-1.297.875-.506.198-1.076.297-1.711.297a4.359 4.359 0 0 1-1.633-.297 3.725 3.725 0 0 1-1.29-.875 4.01 4.01 0 0 1-.835-1.414c-.198-.557-.297-1.195-.297-1.914 0-.953.164-1.76.492-2.422A3.506 3.506 0 0 1 22 9.711c.615-.349 1.346-.524 2.195-.524.797 0 1.5.175 2.11.524.61.349 1.086.857 1.43 1.523.343.667.515 1.474.515 2.422Zm-6.273 0c0 .63.075 1.17.226 1.617.156.448.396.792.719 1.032.323.234.74.351 1.25.351s.927-.117 1.25-.351c.323-.24.56-.584.71-1.032.152-.447.227-.986.227-1.617 0-.63-.075-1.164-.226-1.601-.151-.443-.388-.779-.711-1.008-.323-.235-.742-.352-1.258-.352-.76 0-1.315.255-1.664.766-.349.51-.523 1.242-.523 2.195Zm13.742-4.304h2.023l-3.578 4.156L38.047 18H35.93l-3.727-4.39V18H30.36V9.352h1.844v4.195l3.516-4.195Zm7.125-.165c1.093 0 1.919.243 2.476.727.563.484.844 1.24.844 2.266V18H44.86l-.351-1.227h-.063c-.245.313-.497.57-.758.774-.26.203-.562.354-.906.453-.338.104-.752.156-1.242.156-.516 0-.977-.093-1.383-.281a2.198 2.198 0 0 1-.96-.875c-.235-.39-.352-.885-.352-1.484 0-.891.33-1.56.992-2.008.667-.448 1.672-.695 3.016-.742l1.5-.055v-.453c0-.6-.141-1.026-.422-1.281-.276-.256-.667-.383-1.172-.383-.433 0-.852.062-1.258.187a8.887 8.887 0 0 0-1.188.461l-.593-1.297a6.658 6.658 0 0 1 1.437-.547 6.689 6.689 0 0 1 1.688-.21Zm1.5 4.68-1.117.04c-.917.03-1.56.187-1.93.468-.37.281-.555.667-.555 1.156 0 .427.128.74.383.938.255.192.591.289 1.008.289.635 0 1.161-.18 1.578-.54.422-.364.633-.898.633-1.6v-.75Zm7.078-4.68c.635 0 1.206.086 1.71.258.511.167.915.42 1.212.758.297.339.445.76.445 1.266 0 .52-.151.937-.453 1.25-.297.307-.7.528-1.211.664v.07c.36.089.685.216.977.383.291.161.523.38.695.656.177.271.266.62.266 1.047a2.2 2.2 0 0 1-.43 1.32c-.281.396-.714.711-1.297.946-.583.234-1.326.351-2.227.351-.432 0-.843-.023-1.234-.07a8.036 8.036 0 0 1-1.055-.18 4.476 4.476 0 0 1-.828-.297v-1.578c.36.172.794.328 1.305.469.51.135 1.057.203 1.64.203.433 0 .823-.039 1.172-.117.355-.083.633-.219.836-.406.209-.188.313-.438.313-.75a.978.978 0 0 0-.274-.711c-.182-.188-.455-.326-.82-.414-.364-.094-.825-.14-1.383-.14H49.75v-1.352h.906c.766 0 1.365-.084 1.797-.25.438-.172.656-.47.656-.891a.863.863 0 0 0-.46-.797c-.308-.177-.78-.266-1.415-.266-.437 0-.87.05-1.297.149-.427.094-.854.229-1.28.406l-.579-1.351a8.824 8.824 0 0 1 3.344-.625Zm9.016 0c1.093 0 1.919.243 2.476.727.563.484.844 1.24.844 2.266V18h-1.305l-.351-1.227h-.063a4.46 4.46 0 0 1-.758.774c-.26.203-.562.354-.906.453-.339.104-.753.156-1.242.156-.516 0-.977-.093-1.383-.281a2.197 2.197 0 0 1-.96-.875c-.235-.39-.352-.885-.352-1.484 0-.891.33-1.56.992-2.008.666-.448 1.672-.695 3.015-.742l1.5-.055v-.453c0-.6-.14-1.026-.422-1.281-.276-.256-.666-.383-1.171-.383-.433 0-.852.062-1.258.187a8.888 8.888 0 0 0-1.188.461l-.593-1.297a6.659 6.659 0 0 1 1.437-.547 6.689 6.689 0 0 1 1.688-.21Zm1.5 4.68-1.118.04c-.916.03-1.56.187-1.93.468-.37.281-.554.667-.554 1.156 0 .427.128.74.383.938.255.192.59.289 1.008.289.635 0 1.161-.18 1.578-.54.422-.364.633-.898.633-1.6v-.75Zm10.921-3.07h-2.843V18h-1.829v-7.203H65.36V9.352h7.5v1.445Zm3.516 2.008h2.148c.813 0 1.485.093 2.016.28.537.183.938.46 1.203.83.266.369.399.832.399 1.39 0 .547-.125 1.023-.375 1.43-.25.4-.641.713-1.172.937-.526.219-1.214.328-2.063.328h-4V9.352h1.844v3.453Zm3.922 2.547c0-.433-.162-.737-.484-.915-.323-.182-.784-.273-1.383-.273h-2.055v2.484h2.07c.547 0 .993-.099 1.336-.296.344-.204.516-.537.516-1Zm11.476-6.165c.771 0 1.433.16 1.985.477.552.318.976.768 1.273 1.352.297.583.446 1.28.446 2.093v.985h-5.774c.021.838.245 1.484.672 1.937.432.453 1.037.68 1.813.68.552 0 1.046-.052 1.484-.156a8.24 8.24 0 0 0 1.367-.477v1.492a5.976 5.976 0 0 1-1.32.446c-.448.093-.985.14-1.61.14-.849 0-1.596-.164-2.242-.492a3.601 3.601 0 0 1-1.508-1.484c-.359-.657-.539-1.472-.539-2.446 0-.968.164-1.791.493-2.468.328-.678.789-1.193 1.382-1.547.594-.354 1.287-.531 2.078-.531Zm0 1.383c-.578 0-1.046.188-1.406.563-.354.375-.562.924-.625 1.648h3.938a3.027 3.027 0 0 0-.22-1.148 1.665 1.665 0 0 0-.624-.781c-.276-.188-.63-.282-1.063-.282Zm18.016-1.218v7.234h1.25v4.453h-1.727V18H97.547V9.352h1.836v7.203h3.359V9.352h1.844v7.203h3.367V9.352h1.836Zm6.266-.165c.771 0 1.432.16 1.984.477.552.318.977.768 1.273 1.352.297.583.446 1.28.446 2.093v.985h-5.774c.021.838.245 1.484.672 1.937.433.453 1.037.68 1.813.68.552 0 1.047-.052 1.484-.156.443-.11.899-.268 1.367-.477v1.492a5.967 5.967 0 0 1-1.32.446 7.96 7.96 0 0 1-1.609.14c-.849 0-1.597-.164-2.243-.492a3.6 3.6 0 0 1-1.507-1.484c-.36-.657-.539-1.472-.539-2.446 0-.968.164-1.791.492-2.468.328-.678.789-1.193 1.383-1.547.593-.354 1.286-.531 2.078-.531Zm0 1.383c-.578 0-1.047.188-1.407.563-.354.375-.562.924-.625 1.648h3.938a3.017 3.017 0 0 0-.219-1.148 1.665 1.665 0 0 0-.625-.781c-.276-.188-.63-.282-1.062-.282Z" fill="#1F1E1E"/>
    
</g></symbol><symbol id="home"><g fill="none">
    <path fill="#1F1E1E" d="M0 0h110v110H0z"/>
    <path d="m63 51-6-5.26a3 3 0 0 0-4 0L47 51a3 3 0 0 0-1 2.26V62a3 3 0 0 0 3 3h12a3 3 0 0 0 3-3v-8.75A2.999 2.999 0 0 0 63 51Zm-6 12h-4v-5a1 1 0 0 1 1-1h2a1 1 0 0 1 1 1v5Zm5-1a1 1 0 0 1-1 1h-2v-5a3 3 0 0 0-3-3h-2a3 3 0 0 0-3 3v5h-2a1 1 0 0 1-1-1v-8.75a1 1 0 0 1 .34-.75l6-5.25a1 1 0 0 1 1.32 0l6 5.25a1 1 0 0 1 .34.75V62Z" fill="#BC3324"/>
    <path d="M62 62a1 1 0 0 1-1 1h-2v-5a3 3 0 0 0-3-3h-2a3 3 0 0 0-3 3v5h-2a1 1 0 0 1-1-1v-8.75a1 1 0 0 1 .34-.75l6-5.25a1 1 0 0 1 1.32 0l6 5.25a1 1 0 0 1 .34.75V62Z" fill="#BC3324"/>
</g></symbol><symbol id="LENNI"><g fill="none">
    <path d="M485.389 317.073V0H0v325h647.345v-7.927H485.389ZM675.453 325h200.745v-7.927H713.443V159.935h126.765v-7.926H713.443V7.927H876V0H675.453v325ZM941.896 325V8.393c34.39 0 141.564 13.989 149.554 194.907V325h37.99V0h-37.99v143.615c-9.59-48.027-28.39-82.998-57.18-108.177C998.68 3.73 958.291 0 941.896 0h-37.99v325h37.99ZM1207.45 325V8.393c34.39 0 141.56 13.989 149.56 194.907V325H1395V0h-37.99v143.615c-9.6-48.027-28.4-82.998-57.19-108.177C1264.23 3.73 1223.84 0 1207.45 0h-37.99v325h37.99ZM1473 0h-37.99v325H1920V0h-447Z" fill="#1F1E1E"/>
</g></symbol><symbol id="location"><g fill="none">
    <path fill="#1F1E1E" d="M0 0h110v110H0z"/>
    <circle cx="55" cy="55" r="9" fill="#BC3324"/>
</g></symbol><symbol id="logo" viewBox="0 0 202 147"><g fill="none">
    <path fill="#1F1E1E" d="M0 0h147v147H0z"/>
    <path d="M39.965 72.439H26.633V50.032h-.032v-.033h-4.686V73h18.05v-.561ZM43.932 73h18.117v-.561H48.618V61.285h10.494v-.594H48.618V50.56h13.43v-.561H43.933V73ZM70.7 73V50.56c2.87 0 11.714 1.089 12.374 13.893V73h4.686V49.999h-4.686v10.329C81.655 54.19 77.167 49.999 70.7 49.999h-4.686V73H70.7ZM97.39 73V50.56c2.87 0 11.714 1.089 12.374 13.893V73h4.686V49.999h-4.686v10.329c-1.419-6.138-5.907-10.329-12.375-10.329h-4.686V73h4.686ZM119.393 73h4.686V49.999h-4.686V73Z" fill="#fff"/>
    <path fill="#BC3324" d="M81 92h121v42H81z"/>
    <path d="M108.922 124h.54l2.94-8.55h8.55l3.33 8.55h4.47l-8.1-20.91h-4.53l-7.2 20.91Zm7.5-20.25 4.35 11.19h-8.19l3.84-11.19ZM132.644 103.09V124h4.26v-7.23h5.07l4.89 7.2h4.86l-5.16-7.65c3-.78 5.28-2.64 5.28-6.81 0-5.22-3.81-6.87-8.25-6.87-4.68 0-6.03 3.51-6.69 7.41v-6.96h-4.26Zm5.43 4.38c.81-2.94 2.91-4.14 4.77-4.29 4.47-.42 4.65 2.43 4.65 6.33 0 6.33-3.36 6.75-6.24 6.75h-4.35s-.12-4.14 1.17-8.79ZM162.084 103.6l.03 20.4h4.26v-20.4h8.61v-.51h-21.51v.51h8.61Z" fill="#fff"/>
</g></symbol><symbol id="red_rect"><g fill="none">
    <path fill="#BC3324" d="M4 198H0V0h4z"/>
</g></symbol><symbol id="social"><g fill="none">
    <path fill-rule="evenodd" clip-rule="evenodd" d="M29 58c16.016 0 29-12.984 29-29S45.016 0 29 0 0 12.984 0 29s12.984 29 29 29Zm-3.535-32.535a5 5 0 1 1 7.07 7.07 5 5 0 0 1-7.07-7.07Zm1.238 5.83a3.248 3.248 0 1 0 4.594-4.593 3.248 3.248 0 0 0-4.594 4.594ZM34 25a1 1 0 1 0 0-2 1 1 0 0 0 0 2Zm3.317-4.323a5.106 5.106 0 0 1 1.153 1.767c.297.787.455 1.618.468 2.459.062 1.06.062 1.405.062 4.114 0 2.709-.014 3.047-.062 4.114a7.296 7.296 0 0 1-.466 2.424 5.115 5.115 0 0 1-2.924 2.92 7.355 7.355 0 0 1-2.428.464C32.06 39 31.712 39 29 39s-3.05-.014-4.12-.061a7.321 7.321 0 0 1-2.427-.499 5.12 5.12 0 0 1-2.925-2.919 7.307 7.307 0 0 1-.466-2.425C19 32.035 19 31.69 19 28.982c0-2.709.014-3.047.062-4.114a7.293 7.293 0 0 1 .465-2.424 5.1 5.1 0 0 1 2.925-2.918 7.287 7.287 0 0 1 2.425-.466c1.061-.06 1.409-.06 4.12-.06 2.713 0 3.052.013 4.121.06.83.017 1.65.174 2.428.466a5.116 5.116 0 0 1 1.77 1.15Zm-.545 14.209c.221-.6.338-1.233.346-1.872v.001h.012c.047-1.06.047-1.35.047-4.052 0-2.702-.012-2.998-.06-4.053a5.624 5.624 0 0 0-.345-1.85 3.316 3.316 0 0 0-1.901-1.899 5.516 5.516 0 0 0-1.855-.345c-1.074-.06-1.352-.06-4.058-.06-2.707 0-3.003.013-4.06.06a5.571 5.571 0 0 0-1.853.345 3.314 3.314 0 0 0-1.91 1.899 5.579 5.579 0 0 0-.345 1.87c-.058 1.075-.058 1.351-.058 4.053s.01 2.999.058 4.052c.01.632.127 1.258.346 1.851a3.309 3.309 0 0 0 1.909 1.897c.593.22 1.22.337 1.853.345 1.076.061 1.352.061 4.06.061 2.705 0 3.003-.012 4.058-.06a5.544 5.544 0 0 0 1.855-.346 3.32 3.32 0 0 0 1.901-1.897ZM160 29c0 16.016-12.984 29-29 29s-29-12.984-29-29 12.984-29 29-29 29 12.984 29 29Zm-35.289-10A3.726 3.726 0 0 0 121 22.71v12.58a3.727 3.727 0 0 0 3.711 3.71h12.578A3.726 3.726 0 0 0 141 35.29V22.71a3.727 3.727 0 0 0-3.711-3.71h-12.578Zm12.578 1.818c1.055 0 1.893.838 1.893 1.893v12.578a1.881 1.881 0 0 1-1.893 1.893h-12.578a1.878 1.878 0 0 1-1.752-1.167 1.884 1.884 0 0 1-.141-.726V22.711c0-1.055.838-1.893 1.893-1.893h12.578ZM136.327 26c.398 0 .481.172.398.406h-.001c-.166.644-1.766 2.541-1.766 2.541-.139.188-.195.281 0 .492.069.08.215.201.382.34.173.142.367.302.522.456.564.535.989.985 1.108 1.295.108.312-.08.47-.455.47h-1.313c-.352 0-.529-.166-.911-.524a14.711 14.711 0 0 0-.626-.562c-.779-.632-1.113-.714-1.308-.714-.264 0-.343.063-.343.379v.991c0 .272-.103.43-.938.43-1.391 0-2.919-.711-4.004-2.022-1.627-1.92-2.072-3.373-2.072-3.665 0-.164.075-.313.45-.313h1.313c.336 0 .462.123.586.43.643 1.574 1.725 2.95 2.17 2.95.167 0 .244-.064.244-.421V27.33a1.138 1.138 0 0 0-.365-.812c-.088-.091-.157-.163-.157-.265 0-.124.126-.254.334-.254h2.064c.278 0 .37.125.37.406v2.19c0 .234.126.316.209.316.167 0 .306-.082.612-.34.946-.89 1.613-2.26 1.613-2.26.084-.163.238-.312.572-.312h1.312Z" fill="#1F1E1E"/>
</g></symbol><symbol id="star"><g fill="none">
    <path fill="#1F1E1E" d="M0 0h110v110H0z"/>
    <path d="M64.663 51.772a1 1 0 0 1 .33.462 1 1 0 0 1-.32 1.02l-4.13 4 1 5.68a1 1 0 0 1-.99 1.19.93.93 0 0 1-.46-.12l-5.1-2.68-5.12 2.67a1 1 0 0 1-1.45-1.07l1-5.68-4.13-4a1 1 0 0 1-.25-1 1 1 0 0 1 .81-.68l5.69-.84 2.55-5.16a1 1 0 0 1 1.8 0l2.55 5.17 5.69.83a1 1 0 0 1 .53.208Z" fill="#BC3324"/>
</g></symbol><symbol id="tagree"><g fill="none">
    <path d="M23.314 6.008a3.49 3.49 0 0 0-1.47.297 2.951 2.951 0 0 0-1.085.86c-.297.369-.524.82-.68 1.35a6.255 6.255 0 0 0-.234 1.782c0 .885.125 1.648.375 2.289.25.635.63 1.125 1.14 1.469.51.338 1.157.508 1.938.508.484 0 .956-.047 1.414-.141.458-.094.932-.222 1.422-.383v1.594a7.278 7.278 0 0 1-1.407.398 9.554 9.554 0 0 1-1.64.125c-1.167 0-2.136-.242-2.906-.726-.766-.485-1.339-1.167-1.72-2.047-.374-.88-.562-1.912-.562-3.094 0-.865.12-1.656.36-2.375a5.326 5.326 0 0 1 1.047-1.86A4.535 4.535 0 0 1 21 4.845c.677-.287 1.45-.43 2.32-.43.573 0 1.136.065 1.688.195a6.866 6.866 0 0 1 1.547.54l-.657 1.546a9.6 9.6 0 0 0-1.242-.484 4.469 4.469 0 0 0-1.343-.203Zm12.742 5.648c0 .719-.094 1.357-.282 1.914a3.833 3.833 0 0 1-.82 1.414c-.36.38-.792.672-1.297.875-.505.198-1.075.297-1.71.297a4.358 4.358 0 0 1-1.633-.297 3.726 3.726 0 0 1-1.29-.875 4.01 4.01 0 0 1-.835-1.414c-.198-.557-.297-1.195-.297-1.914 0-.953.164-1.76.492-2.422a3.505 3.505 0 0 1 1.422-1.523c.614-.349 1.346-.524 2.195-.524.797 0 1.5.175 2.11.524.609.349 1.085.857 1.429 1.523.344.667.516 1.474.516 2.422Zm-6.274 0c0 .63.076 1.17.227 1.617.156.448.396.792.718 1.032.323.234.74.351 1.25.351.511 0 .928-.117 1.25-.351.324-.24.56-.584.712-1.032.15-.447.226-.986.226-1.617 0-.63-.075-1.164-.227-1.601-.15-.443-.388-.779-.71-1.008-.323-.235-.743-.352-1.258-.352-.76 0-1.315.256-1.664.766-.35.51-.524 1.242-.524 2.195Zm11.07-4.469c.636 0 1.206.086 1.712.258.51.167.913.42 1.21.758.297.339.446.76.446 1.266 0 .52-.151.937-.453 1.25-.297.307-.7.528-1.211.664v.07c.359.089.685.216.976.383.292.161.524.38.696.656.177.271.265.62.265 1.047a2.2 2.2 0 0 1-.43 1.32c-.28.396-.713.711-1.296.946-.584.234-1.326.351-2.227.351-.432 0-.844-.023-1.234-.07a8.033 8.033 0 0 1-1.055-.18 4.474 4.474 0 0 1-.828-.297v-1.578c.36.172.794.328 1.304.469a6.38 6.38 0 0 0 1.641.203c.432 0 .823-.039 1.172-.117.354-.083.633-.219.836-.406.208-.188.313-.438.313-.75a.978.978 0 0 0-.274-.711c-.182-.188-.456-.326-.82-.414-.365-.094-.826-.14-1.383-.14H39.18v-1.352h.906c.765 0 1.364-.084 1.797-.25.437-.172.656-.47.656-.891a.863.863 0 0 0-.46-.797c-.308-.177-.78-.266-1.415-.266-.438 0-.87.05-1.297.149-.427.094-.854.229-1.281.406l-.578-1.351a8.825 8.825 0 0 1 3.344-.625Zm12.688.165v7.226h1.25v4.469h-1.695V16h-5.969v3.047h-1.695v-4.469h.703a9.723 9.723 0 0 0 1.093-2.125c.297-.781.527-1.604.688-2.469.167-.87.27-1.747.313-2.632h5.312Zm-1.82 1.406h-1.914c-.063.703-.17 1.404-.32 2.101a14.243 14.243 0 0 1-.587 1.993 9.33 9.33 0 0 1-.843 1.726h3.664v-5.82Zm8.07-1.57c1.094 0 1.92.242 2.477.726.562.484.843 1.24.843 2.266V16h-1.304l-.352-1.227h-.062c-.245.313-.498.57-.758.774-.26.203-.563.354-.907.453-.338.104-.752.156-1.242.156-.515 0-.976-.093-1.383-.281a2.198 2.198 0 0 1-.96-.875c-.235-.39-.352-.885-.352-1.484 0-.891.33-1.56.992-2.008.667-.448 1.672-.695 3.016-.742l1.5-.055v-.453c0-.6-.14-1.026-.422-1.281-.276-.256-.667-.383-1.172-.383-.432 0-.852.062-1.258.187a8.883 8.883 0 0 0-1.187.461l-.594-1.297a6.66 6.66 0 0 1 1.438-.547 6.689 6.689 0 0 1 1.687-.21Zm1.5 4.68-1.117.038c-.917.031-1.56.188-1.93.469-.37.281-.555.667-.555 1.156 0 .427.128.74.383.938.256.193.591.289 1.008.289.636 0 1.162-.18 1.578-.54.422-.364.633-.898.633-1.6v-.75Zm6.234-4.516v3.476h4.047V7.352h1.844V16h-1.844v-3.734h-4.047V16h-1.843V7.352h1.843Zm10.282 0v4.414c0 .14-.005.32-.016.539-.005.213-.016.437-.031.672-.016.229-.031.44-.047.632-.016.193-.029.336-.04.43l4.352-6.687h2.235V16H82.5v-4.367c0-.23.005-.495.016-.797.015-.302.03-.594.047-.875.02-.281.033-.495.039-.64L78.267 16H76.04V7.352h1.766Zm12.539-.165c.77 0 1.432.16 1.984.477.552.318.977.768 1.274 1.352.296.583.445 1.28.445 2.093v.985h-5.774c.021.838.245 1.484.672 1.937.433.453 1.037.68 1.813.68.552 0 1.047-.052 1.484-.156a8.24 8.24 0 0 0 1.367-.477v1.492a5.975 5.975 0 0 1-1.32.446c-.448.093-.984.14-1.61.14-.848 0-1.596-.164-2.242-.492a3.6 3.6 0 0 1-1.507-1.484c-.36-.657-.54-1.472-.54-2.446 0-.968.165-1.791.493-2.468.328-.677.789-1.193 1.383-1.547.593-.354 1.286-.532 2.078-.532Zm0 1.383c-.578 0-1.047.188-1.406.563-.355.375-.563.924-.625 1.648h3.937a3.027 3.027 0 0 0-.219-1.148 1.665 1.665 0 0 0-.625-.781c-.276-.188-.63-.282-1.062-.282Zm11.695-1.218v4.414c0 .14-.005.32-.016.539-.005.213-.015.437-.031.672a36.274 36.274 0 0 1-.086 1.062l4.352-6.687h2.234V16h-1.758v-4.367c0-.23.006-.495.016-.797l.047-.875c.021-.281.034-.495.039-.64L102.501 16h-2.227V7.352h1.766Zm20.805 0V16h-1.852V8.805h-3.859V16h-1.844V7.352h7.555Zm7.07-.165c1.026 0 1.849.375 2.469 1.125.625.75.937 1.865.937 3.344 0 .98-.146 1.805-.437 2.477-.287.667-.69 1.172-1.211 1.515-.516.339-1.117.508-1.805.508-.437 0-.818-.057-1.14-.172a2.863 2.863 0 0 1-.829-.445 3.202 3.202 0 0 1-.578-.61h-.109c.026.209.049.44.07.696.026.25.039.48.039.688v3.523h-1.843V7.352h1.5l.257 1.195h.086c.162-.245.357-.471.586-.68.235-.208.516-.372.844-.492a3.305 3.305 0 0 1 1.164-.188Zm-.492 1.5c-.505 0-.912.102-1.219.305-.302.198-.523.498-.664.899-.135.4-.208.903-.219 1.507v.258c0 .64.065 1.185.196 1.633.135.443.356.781.664 1.016.312.229.734.343 1.265.343.448 0 .818-.122 1.11-.367.297-.245.518-.594.664-1.047.146-.453.218-.987.218-1.601 0-.932-.166-1.656-.5-2.172-.328-.516-.833-.774-1.515-.774Zm13.68 2.97c0 .718-.094 1.356-.282 1.913a3.83 3.83 0 0 1-.82 1.414c-.359.38-.792.672-1.297.875-.505.198-1.075.297-1.711.297a4.36 4.36 0 0 1-1.633-.297 3.737 3.737 0 0 1-1.289-.875 4.018 4.018 0 0 1-.836-1.414c-.198-.557-.297-1.195-.297-1.914 0-.953.165-1.76.493-2.422a3.501 3.501 0 0 1 1.422-1.523c.614-.349 1.346-.524 2.195-.524.797 0 1.5.175 2.109.524.61.349 1.086.857 1.43 1.523.344.667.516 1.474.516 2.422Zm-6.274 0c0 .63.076 1.168.227 1.616.156.448.395.792.718 1.032.323.234.74.351 1.25.351.511 0 .927-.117 1.25-.351.323-.24.56-.584.711-1.032.151-.447.227-.986.227-1.617 0-.63-.076-1.164-.227-1.601-.151-.443-.388-.779-.711-1.008-.323-.235-.742-.352-1.257-.352-.761 0-1.316.256-1.664.766-.349.51-.524 1.242-.524 2.195Zm15.445-4.305v7.226h1.25v4.469h-1.695V16h-5.969v3.047h-1.695v-4.469h.703a9.719 9.719 0 0 0 1.094-2.125c.297-.781.526-1.604.687-2.469.167-.87.271-1.747.313-2.632h5.312Zm-1.82 1.406h-1.914a16.985 16.985 0 0 1-.32 2.101 14.31 14.31 0 0 1-.586 1.993 9.375 9.375 0 0 1-.844 1.726h3.664v-5.82Zm11.953.812c0 .5-.153.91-.461 1.227-.302.312-.718.518-1.25.617v.063c.568.072 1.042.273 1.422.601.38.328.57.784.57 1.367 0 .495-.125.935-.375 1.32-.244.38-.635.683-1.171.907-.532.219-1.227.328-2.086.328h-3.922V7.352h3.906c.646 0 1.221.07 1.727.21.51.141.911.373 1.203.696.291.323.437.76.437 1.312Zm-1.633 3.813c0-.427-.164-.735-.492-.922-.323-.188-.797-.281-1.422-.281h-1.882v2.468h1.921c.584 0 1.042-.096 1.375-.289.334-.197.5-.523.5-.976Zm-.234-3.649c0-.338-.128-.588-.383-.75-.255-.166-.656-.25-1.203-.25h-1.976v2.094h1.726c.604 0 1.06-.086 1.367-.258.313-.177.469-.455.469-.836Zm5.984-2.382v4.414c0 .14-.005.32-.015.539a16.7 16.7 0 0 1-.031.672c-.016.229-.032.44-.047.632-.016.193-.029.336-.039.43l4.351-6.687h2.235V16h-1.758v-4.367c0-.23.005-.495.015-.797l.047-.875c.021-.281.034-.495.039-.64L166.985 16h-2.226V7.352h1.765Zm20.313 0-3.391 4.171L187.142 16h-2.016l-3.539-4.39V16h-1.711v-4.39L176.337 16h-2.016l3.696-4.477-3.391-4.171h1.945l3.305 4.195V7.352h1.711v4.195l3.312-4.195h1.938Zm5.101-.165c.771 0 1.433.16 1.985.477.552.318.976.768 1.273 1.352.297.583.446 1.28.446 2.093v.985h-5.774c.021.838.245 1.484.672 1.937.432.453 1.036.68 1.813.68.552 0 1.046-.052 1.484-.156.443-.11.898-.268 1.367-.477v1.492a5.967 5.967 0 0 1-1.32.446 7.97 7.97 0 0 1-1.61.14c-.849 0-1.596-.164-2.242-.492a3.608 3.608 0 0 1-1.508-1.484c-.359-.657-.539-1.472-.539-2.446 0-.968.164-1.791.493-2.468.328-.677.789-1.193 1.382-1.547.594-.354 1.287-.532 2.078-.532Zm0 1.383c-.578 0-1.046.188-1.406.563-.354.375-.562.924-.625 1.648h3.938a3.017 3.017 0 0 0-.219-1.148 1.665 1.665 0 0 0-.625-.781c-.276-.188-.63-.282-1.063-.282Zm7.618-1.218v3.476h4.047V7.352h1.843V16h-1.843v-3.734h-4.047V16h-1.844V7.352h1.844Zm10.281 0v4.414c0 .14-.005.32-.016.539-.005.213-.015.437-.031.672a49.69 49.69 0 0 1-.086 1.062l4.352-6.687h2.234V16h-1.758v-4.367c0-.23.005-.495.016-.797.015-.302.031-.594.047-.875.021-.281.034-.495.039-.64L210.298 16h-2.227V7.352h1.766Zm12.539-.165c.771 0 1.432.16 1.984.477.552.318.977.768 1.274 1.352.297.583.445 1.28.445 2.093v.985h-5.773c.02.838.244 1.484.672 1.937.432.453 1.036.68 1.812.68.552 0 1.047-.052 1.484-.156.443-.11.899-.268 1.368-.477v1.492a5.992 5.992 0 0 1-1.321.446 7.96 7.96 0 0 1-1.609.14c-.849 0-1.596-.164-2.242-.492a3.596 3.596 0 0 1-1.508-1.484c-.359-.657-.539-1.472-.539-2.446 0-.968.164-1.791.492-2.468.328-.677.789-1.193 1.383-1.547.594-.354 1.286-.532 2.078-.532Zm0 1.383c-.578 0-1.047.188-1.406.563-.354.375-.563.924-.625 1.648h3.937a3.017 3.017 0 0 0-.219-1.148 1.659 1.659 0 0 0-.625-.781c-.276-.188-.63-.282-1.062-.282ZM247.301 15.695h-2.194a3.15 3.15 0 0 1-1.276-.262 3.313 3.313 0 0 1-1.037-.704 3.614 3.614 0 0 1-.698-1.066 3.224 3.224 0 0 1-.259-1.288V3.604L244.23 3v3.843h1.396l.598 2.414h-1.994v3.118c0 .255.086.47.259.644a.84.84 0 0 0 .618.261h1.596l.598 2.415ZM257.7 5.615v10.08h-2.393v-5.03c0-.805-.279-1.489-.838-2.052a2.756 2.756 0 0 0-2.034-.845c-.385 0-.758.074-1.116.221a2.862 2.862 0 0 0-.918.624 2.807 2.807 0 0 0-.837 2.052c0 .791.279 1.469.837 2.032.266.282.572.496.918.644.358.134.731.201 1.116.201.399 0 .758-.067 1.077-.201l.858 2.152c-.612.309-1.323.463-2.134.463a5.101 5.101 0 0 1-2.034-.402 5.062 5.062 0 0 1-1.596-1.147 5.26 5.26 0 0 1-1.057-1.69 5.58 5.58 0 0 1-.378-2.052c0-.738.126-1.428.378-2.072a5.26 5.26 0 0 1 1.057-1.69 4.804 4.804 0 0 1 1.596-1.127 4.893 4.893 0 0 1 2.034-.422c.651 0 1.23.1 1.735.302.505.2.95.456 1.336.764v-.805h2.393ZM269.326 14.689c0 .724-.139 1.408-.419 2.052a5.182 5.182 0 0 1-1.116 1.69 5.416 5.416 0 0 1-1.675 1.146 5.032 5.032 0 0 1-2.054.423 5.056 5.056 0 0 1-1.696-.282 5.286 5.286 0 0 1-1.475-.804l1.735-1.73c.425.268.904.402 1.436.402.811 0 1.489-.289 2.034-.865.558-.564.837-1.24.837-2.032v-4.044c0-.778-.279-1.462-.837-2.052a2.759 2.759 0 0 0-2.034-.845c-.772 0-1.45.282-2.035.845-.558.59-.837 1.274-.837 2.052 0 .805.279 1.489.837 2.052.585.563 1.263.845 2.035.845.398 0 .757-.067 1.076-.201l.898 2.253a5.12 5.12 0 0 1-1.935.362h-.039a5.202 5.202 0 0 1-2.035-.402 5.416 5.416 0 0 1-1.675-1.147 5.47 5.47 0 0 1-1.136-1.69 5.138 5.138 0 0 1-.419-2.072c0-.738.12-1.428.359-2.072a5.347 5.347 0 0 1 .997-1.69 4.652 4.652 0 0 1 1.555-1.127 4.714 4.714 0 0 1 1.995-.422c.691 0 1.302.107 1.834.322a5.37 5.37 0 0 1 1.396.764v-.784h2.393v9.053ZM272.921 6.4a5.173 5.173 0 0 1 1.256-.764 4.133 4.133 0 0 1 1.615-.302v2.414c-.797 0-1.475.282-2.034.845-.558.59-.837 1.274-.837 2.052v5.05h-2.393V5.615h2.393V6.4ZM283.85 11.872h-5.224c.133.309.325.584.578.825.279.282.592.496.937.644.346.134.712.201 1.097.201a2.78 2.78 0 0 0 1.456-.382l2.493 1.006a5.148 5.148 0 0 1-1.735 1.327 5.282 5.282 0 0 1-2.214.463 5.245 5.245 0 0 1-2.054-.402 5.416 5.416 0 0 1-2.812-2.837 5.32 5.32 0 0 1-.399-2.052c0-.738.133-1.428.399-2.072a5.454 5.454 0 0 1 1.137-1.69 5.141 5.141 0 0 1 1.675-1.127 5.03 5.03 0 0 1 2.054-.422c.731 0 1.416.14 2.054.422a5.13 5.13 0 0 1 1.675 1.127 5.184 5.184 0 0 1 1.117 1.69c.279.644.419 1.334.419 2.072 0 .43-.047.832-.14 1.207h-2.513Zm-2.612-4.104c-.771 0-1.449.282-2.034.845a2.725 2.725 0 0 0-.578.845h5.224a2.708 2.708 0 0 0-.578-.845 2.756 2.756 0 0 0-2.034-.845ZM295.185 11.872h-5.225c.133.309.326.584.578.825.279.282.592.496.937.644.346.134.712.201 1.097.201.545 0 1.031-.127 1.456-.382l2.493 1.006a5.148 5.148 0 0 1-1.735 1.327 5.282 5.282 0 0 1-2.214.463 5.245 5.245 0 0 1-2.054-.402 5.416 5.416 0 0 1-1.675-1.147 5.49 5.49 0 0 1-1.137-1.69 5.339 5.339 0 0 1-.398-2.052c0-.738.133-1.428.398-2.072a5.489 5.489 0 0 1 1.137-1.69 5.141 5.141 0 0 1 1.675-1.127 5.03 5.03 0 0 1 2.054-.422c.731 0 1.416.14 2.054.422a5.13 5.13 0 0 1 1.675 1.127 5.184 5.184 0 0 1 1.117 1.69c.279.644.419 1.334.419 2.072 0 .43-.047.832-.14 1.207h-2.512Zm-2.613-4.104c-.771 0-1.449.282-2.034.845a2.742 2.742 0 0 0-.578.845h5.225a2.728 2.728 0 0 0-.579-.845 2.756 2.756 0 0 0-2.034-.845Z" fill="#1F1E1E"/>
</g></symbol><symbol id="&#x43a;&#x430;&#x440;&#x442;&#x430;_&#x437;&#x430;&#x432;&#x435;&#x434;&#x435;&#x43d;&#x438;&#x44f;"><g fill="none">
    <g class="scene__dance-floor">
        <path d="M462 82.5c0 38.936-31.564 70.5-70.5 70.5S321 121.436 321 82.5 352.564 12 391.5 12 462 43.564 462 82.5Z" fill="#1F1E1E"/>
        <path d="M362.453 89h-1.867v-9.82h-3.359v-1.602h8.585v1.602h-3.359V89Zm10.328 0-.367-1.203h-.062c-.417.526-.836.885-1.258 1.078-.422.188-.964.281-1.625.281-.849 0-1.513-.229-1.992-.687-.474-.459-.711-1.107-.711-1.946 0-.89.33-1.562.992-2.015.661-.453 1.669-.7 3.023-.742l1.492-.047v-.461c0-.552-.13-.964-.39-1.235-.255-.276-.654-.414-1.195-.414-.443 0-.868.066-1.274.196s-.797.283-1.172.46l-.594-1.312c.469-.245.982-.43 1.54-.555a6.944 6.944 0 0 1 1.578-.195c1.099 0 1.927.24 2.484.719.562.479.844 1.232.844 2.258V89h-1.313Zm-2.734-1.25c.667 0 1.2-.185 1.601-.555.407-.375.61-.898.61-1.57v-.75l-1.11.047c-.864.031-1.494.177-1.89.437-.391.256-.586.649-.586 1.18 0 .385.114.685.344.898.229.209.573.313 1.031.313Zm8.445-7.39v3.468h4.07V80.36h1.836V89h-1.836v-3.727h-4.07V89h-1.836v-8.64h1.836Zm16.235 7.218h1.25v4.461h-1.727V89h-7.219v-8.64h1.836v7.187h4.024v-7.188h1.836v7.22Zm10.375-7.219V89h-1.844v-7.188h-3.875V89h-1.836v-8.64h7.555Zm10.296 4.305c0 1.412-.362 2.513-1.086 3.305-.723.791-1.731 1.187-3.023 1.187-.807 0-1.521-.182-2.141-.547a3.612 3.612 0 0 1-1.429-1.57c-.334-.682-.5-1.474-.5-2.375 0-1.401.359-2.495 1.078-3.281.719-.787 1.732-1.18 3.039-1.18 1.25 0 2.24.404 2.969 1.211.729.802 1.093 1.885 1.093 3.25Zm-6.289 0c0 1.995.737 2.992 2.211 2.992 1.459 0 2.188-.997 2.188-2.992 0-1.974-.735-2.96-2.203-2.96-.771 0-1.331.254-1.68.765-.344.51-.516 1.242-.516 2.195ZM424.617 89h-1.851v-7.203h-2.383c-.146 1.854-.344 3.302-.594 4.344-.245 1.041-.568 1.802-.969 2.28-.396.48-.911.72-1.547.72-.401 0-.737-.058-1.007-.172V87.53c.192.073.385.11.578.11.531 0 .948-.597 1.25-1.79.307-1.197.547-3.028.718-5.492h5.805V89Z" fill="#fff"/>
    </g>
    <g class="scene__table scene__table--red">
        <g class="scene__table-group" stroke="#BC3324">
            <path d="M507.5 35.5h83v28h-83z"/>
            <circle cx="527" cy="20" r="11.5"/>
            <circle cx="570" cy="20" r="11.5"/>
            <circle cx="606" cy="48" r="11.5"/>
            <circle cx="570" cy="79" r="11.5"/>
            <circle cx="527" cy="79" r="11.5"/>
        </g>
        <path class="scene__table-num" d="M552.199 56h-3.916v-7.773c0-.352.003-.74.01-1.162.013-.424.029-.805.049-1.143a6.41 6.41 0 0 1-.479.518c-.143.143-.283.276-.42.4l-1.621 1.338-2.002-2.461 4.903-3.994h3.476V56Z" fill="#BC3324"/>
        <path fill="transparent" d="M507 8h111v83H507z"/>
    </g>
    <g class="scene__table">
        <g class="scene__table-group" stroke="#1F1E1E">
            <path d="M712.5 4.5h40v93h-40z"/>
            <circle cx="697" cy="16" r="11.5"/>
            <circle cx="768" cy="17" r="11.5"/>
            <circle cx="697" cy="49" r="11.5"/>
            <circle cx="768" cy="50" r="11.5"/>
            <circle cx="697" cy="82" r="11.5"/>
            <circle cx="768" cy="83" r="11.5"/>
            <circle cx="733" cy="113" r="11.5"/>
        </g>
        <path class="scene__table-num" d="M737.957 60h-10.361v-2.54l3.486-3.525c.996-1.041 1.647-1.75 1.953-2.128.306-.385.518-.713.635-.987.124-.273.185-.56.185-.86 0-.37-.12-.663-.361-.878-.241-.215-.579-.322-1.015-.322-.45 0-.905.13-1.368.39-.455.254-.973.632-1.552 1.133l-2.12-2.48c.736-.658 1.355-1.127 1.856-1.406a6.519 6.519 0 0 1 1.631-.655 8.132 8.132 0 0 1 1.992-.224c.924 0 1.748.162 2.471.488.729.325 1.292.79 1.689 1.396.404.6.606 1.273.606 2.022 0 .56-.072 1.077-.215 1.553a5.443 5.443 0 0 1-.645 1.406 9.645 9.645 0 0 1-1.172 1.445c-.481.508-1.513 1.471-3.095 2.89v.098h5.4V60Z" fill="#1F1E1E"/>
        <path fill="transparent" d="M685 4h95v121h-95z"/>
    </g>
    <g class="scene__table">
        <g class="scene__table-group" stroke="#1F1E1E">
            <path d="M712.5 185.5h40v93h-40z"/>
            <circle cx="697" cy="197" r="11.5"/>
            <circle cx="768" cy="198" r="11.5"/>
            <circle cx="697" cy="230" r="11.5"/>
            <circle cx="768" cy="231" r="11.5"/>
            <circle cx="697" cy="263" r="11.5"/>
            <circle cx="768" cy="264" r="11.5"/>
            <circle cx="733" cy="294" r="11.5"/>
        </g>
        <path class="scene__table-num" d="M737.479 229.818c0 .886-.271 1.647-.811 2.286-.54.631-1.322 1.09-2.344 1.376v.059c2.383.3 3.574 1.426 3.574 3.379 0 1.328-.527 2.373-1.582 3.135-1.048.761-2.506 1.142-4.375 1.142a12.86 12.86 0 0 1-2.138-.166 11.1 11.1 0 0 1-2.119-.605v-3.203a8.709 8.709 0 0 0 1.904.713c.651.149 1.25.224 1.797.224.846 0 1.461-.117 1.845-.351.391-.241.586-.616.586-1.123 0-.391-.101-.691-.302-.899-.202-.215-.528-.374-.977-.478-.449-.111-1.035-.166-1.758-.166h-.879v-2.901h.899c1.959 0 2.939-.501 2.939-1.504 0-.377-.146-.657-.439-.84-.287-.182-.674-.273-1.162-.273-.912 0-1.856.306-2.832.918l-1.602-2.578a7.773 7.773 0 0 1 2.315-1.113c.794-.222 1.702-.332 2.724-.332 1.478 0 2.637.293 3.477.878.84.586 1.26 1.394 1.26 2.422Z" fill="#1F1E1E"/>
        <path fill="transparent" d="M685 185h95v121h-95z"/>
    </g>
    <g class="scene__table scene__table--red">
        <g class="scene__table-group" stroke="#BC3324">
            <path d="M507.5 182.5h83v28h-83z"/>
            <circle cx="527" cy="167" r="11.5"/>
            <circle cx="570" cy="167" r="11.5"/>
            <circle cx="606" cy="195" r="11.5"/>
            <circle cx="570" cy="226" r="11.5"/>
            <circle cx="527" cy="226" r="11.5"/>
        </g>
        <path class="scene__table-num" d="M554.416 199.236h-1.572V202h-3.809v-2.764h-5.693v-2.832l5.937-8.681h3.565v8.632h1.572v2.881Zm-5.381-2.881v-1.66c0-.312.01-.732.029-1.259.026-.534.046-.814.059-.84h-.107c-.222.501-.472.97-.752 1.406l-1.582 2.353h2.353Z" fill="#BC3324"/>
        <path fill="transparent" d="M507 155h111v83H507z"/>
    </g>
    <g class="scene__table">
        <g class="scene__table-group" stroke="#1F1E1E">
            <path d="M494.5 278.5h40v93h-40z"/>
            <circle cx="479" cy="290" r="11.5"/>
            <circle cx="550" cy="291" r="11.5"/>
            <circle cx="479" cy="323" r="11.5"/>
            <circle cx="550" cy="324" r="11.5"/>
            <circle cx="479" cy="356" r="11.5"/>
            <circle cx="550" cy="357" r="11.5"/>
            <circle cx="515" cy="387" r="11.5"/>
        </g>
        <path class="scene__table-num" d="M515.484 322.645c.821 0 1.56.192 2.217.576a3.869 3.869 0 0 1 1.543 1.611c.371.697.557 1.501.557 2.412 0 1.595-.482 2.819-1.446 3.672-.957.853-2.408 1.279-4.355 1.279-1.667 0-3.027-.257-4.082-.771v-3.164c.566.26 1.204.475 1.914.644.716.17 1.331.254 1.846.254.716 0 1.266-.15 1.65-.449.384-.306.576-.755.576-1.348 0-.547-.195-.973-.586-1.279-.39-.306-.983-.459-1.777-.459-.605 0-1.26.114-1.963.342l-1.416-.703.537-7.539h8.145v3.213h-4.864l-.175 1.884c.507-.097.869-.149 1.084-.156.215-.013.413-.019.595-.019Z" fill="#1F1E1E"/>
        <path fill="transparent" d="M467 278h95v121h-95z"/>
    </g>
    <g class="scene__table">
        <g class="scene__table-group" stroke="#1F1E1E">
            <path d="M273.5 278.5h40v93h-40z"/>
            <circle cx="258" cy="290" r="11.5"/>
            <circle cx="329" cy="291" r="11.5"/>
            <circle cx="258" cy="323" r="11.5"/>
            <circle cx="329" cy="324" r="11.5"/>
            <circle cx="258" cy="356" r="11.5"/>
            <circle cx="329" cy="357" r="11.5"/>
            <circle cx="294" cy="387" r="11.5"/>
        </g>
        <path class="scene__table-num" d="M288.684 326.965c0-1.992.283-3.604.849-4.834.573-1.237 1.413-2.149 2.52-2.735 1.113-.585 2.483-.878 4.111-.878.579 0 1.257.055 2.031.166v3.017a11.335 11.335 0 0 0-2.119-.185c-1.289 0-2.249.283-2.881.849-.631.567-.976 1.491-1.035 2.774h.117c.586-1.107 1.527-1.66 2.823-1.66 1.269 0 2.252.41 2.949 1.23.703.814 1.055 1.95 1.055 3.408 0 1.569-.443 2.809-1.329 3.721-.885.905-2.122 1.357-3.711 1.357-1.686 0-3.004-.547-3.955-1.64-.95-1.094-1.425-2.624-1.425-4.59Zm5.293 3.174c.41 0 .742-.153.996-.459.26-.313.39-.808.39-1.485 0-1.159-.449-1.738-1.347-1.738-.443 0-.804.15-1.084.449-.274.3-.411.664-.411 1.094 0 .625.134 1.139.401 1.543.267.397.618.596 1.055.596Z" fill="#1F1E1E"/>
        <path opacity=".01" fill="transparent" d="M246 278h95v121h-95z"/>
    </g>
    <g class="scene__table scene__table--red">
        <g class="scene__table-group" stroke="#BC3324">
            <path d="M320.5 183.5h83v28h-83z"/>
            <circle cx="383" cy="227" r="11.5"/>
            <circle cx="419" cy="197" r="11.5"/>
            <circle cx="305" cy="197" r="11.5"/>
            <circle cx="340" cy="227" r="11.5"/>
        </g>
        <path class="scene__table-num" d="m358.041 204 4.902-11.084h-6.181v-3.193h10.302v2.275L362.035 204h-3.994Z" fill="#BC3324"/>
        <path fill="transparent" d="M293 183h138v56H293z"/>
    </g>
    <g class="scene__table scene__table--red">
        <g class="scene__table-group" stroke="#BC3324">
            <path d="M187.5 169.5h61v36h-61z"/>
            <circle cx="216" cy="221" r="11.5" transform="rotate(-180 216 221)"/>
            <circle cx="171" cy="185" r="11.5" transform="rotate(-180 171 185)"/>
            <circle cx="216" cy="154" r="11.5" transform="rotate(-180 216 154)"/>
        </g>
        <path class="scene__table-num" d="M215.898 180.518c.944 0 1.771.127 2.481.38.716.254 1.276.642 1.68 1.163.403.514.605 1.162.605 1.943 0 .573-.107 1.077-.322 1.514a3.575 3.575 0 0 1-.869 1.132 5.698 5.698 0 0 1-1.27.83c.449.254.895.551 1.338.889.443.339.811.739 1.104 1.201.293.456.439 1 .439 1.631 0 .762-.186 1.445-.557 2.051-.371.599-.94 1.074-1.709 1.426-.768.345-1.754.517-2.959.517-1.204 0-2.19-.166-2.959-.498-.768-.332-1.334-.794-1.699-1.386-.358-.599-.537-1.29-.537-2.071 0-.664.111-1.224.332-1.679.228-.456.537-.844.928-1.163a7.33 7.33 0 0 1 1.338-.859 7.026 7.026 0 0 1-1.094-.908 3.956 3.956 0 0 1-.791-1.162 3.601 3.601 0 0 1-.293-1.485c0-.768.205-1.409.615-1.923.41-.515.977-.899 1.699-1.153.73-.26 1.563-.39 2.5-.39Zm-1.699 10.566c0 .397.143.719.43.967.286.247.683.371 1.191.371.593 0 1.026-.111 1.299-.332.28-.228.42-.537.42-.928 0-.293-.088-.557-.264-.791a2.851 2.851 0 0 0-.595-.625 5.613 5.613 0 0 0-.596-.41l-.264-.156a5.234 5.234 0 0 0-.81.508c-.241.182-.436.39-.586.624-.15.228-.225.486-.225.772Zm1.68-7.783a1.28 1.28 0 0 0-.83.283c-.235.182-.352.433-.352.752 0 .208.049.404.147.586.104.176.241.338.41.488.176.15.371.287.586.41a7.12 7.12 0 0 0 .556-.361 1.81 1.81 0 0 0 .459-.469c.124-.182.186-.4.186-.654 0-.319-.117-.57-.352-.752a1.227 1.227 0 0 0-.81-.283Z" fill="#BC3324"/>
        <path fill="transparent" d="M159 142h90v91h-90z"/>
    </g>
    <g class="scene__table scene__table--red">
        <g class="scene__table-group" stroke="#BC3324">
            <path d="M222.5 27.5h61v36h-61z"/>
            <circle cx="251" cy="79" r="11.5" transform="rotate(-180 251 79)"/>
            <circle cx="206" cy="43" r="11.5" transform="rotate(-180 206 43)"/>
            <circle cx="251" cy="12" r="11.5" transform="rotate(-180 251 12)"/>
        </g>
        <path class="scene__table-num" d="M256.064 45.256c0 2.793-.602 4.814-1.806 6.064-1.205 1.25-3.132 1.875-5.781 1.875-.873 0-1.537-.032-1.993-.097V50.04c.56.104 1.12.156 1.68.156 1.38 0 2.445-.283 3.193-.85.749-.572 1.156-1.474 1.221-2.704h-.117c-.254.468-.505.807-.752 1.015-.247.209-.55.368-.908.479-.358.11-.804.166-1.338.166-1.237 0-2.204-.414-2.901-1.24-.696-.827-1.044-1.967-1.044-3.419 0-1.581.449-2.822 1.347-3.72.905-.899 2.142-1.348 3.711-1.348 1.745 0 3.096.58 4.053 1.739.957 1.158 1.435 2.805 1.435 4.94Zm-5.38-3.594a1.31 1.31 0 0 0-1.036.46c-.26.305-.39.797-.39 1.474 0 .534.114.96.342 1.279.227.313.576.469 1.045.469.423 0 .791-.153 1.103-.46.313-.305.469-.673.469-1.103 0-.58-.147-1.077-.44-1.494-.286-.417-.651-.625-1.093-.625Z" fill="#BC3324"/>
        <path fill="transparent" d="M194 0h90v91h-90z"/>
    </g>
    <g class="scene__table">
        <g class="scene__table-group" stroke="#1F1E1E">
            <path d="M110.5 65V.5h31v92h-126v-27h95V65Z"/>
            <circle cx="27" cy="50" r="11.5"/>
            <circle cx="61" cy="50" r="11.5"/>
            <circle cx="94" cy="50" r="11.5"/>
            <circle cx="94" cy="16" r="11.5"/>
        </g>
        <path class="scene__table-num" d="M121.199 85h-3.916v-7.773c0-.352.003-.74.01-1.163.013-.423.029-.804.049-1.142a6.41 6.41 0 0 1-.479.517c-.143.144-.283.277-.42.4l-1.621 1.339-2.002-2.461 4.903-3.994h3.476V85Zm13.535-7.12c0 1.147-.091 2.172-.273 3.077-.182.899-.475 1.663-.879 2.295A3.929 3.929 0 0 1 132 84.697c-.658.332-1.465.498-2.422.498-1.191 0-2.168-.29-2.93-.869-.761-.586-1.324-1.422-1.689-2.51-.358-1.093-.537-2.405-.537-3.935 0-1.543.163-2.862.488-3.955.332-1.1.876-1.944 1.631-2.53.755-.585 1.768-.878 3.037-.878 1.192 0 2.165.293 2.92.879.762.579 1.325 1.419 1.69 2.519.364 1.094.546 2.415.546 3.965Zm-6.474 0c0 .932.032 1.713.097 2.345.072.631.202 1.106.391 1.425.195.313.472.47.83.47a.903.903 0 0 0 .82-.47c.189-.319.319-.79.391-1.416.072-.631.107-1.416.107-2.353 0-.944-.035-1.732-.107-2.363-.072-.632-.202-1.107-.391-1.426-.188-.326-.462-.489-.82-.489-.358 0-.635.163-.83.489-.189.319-.319.794-.391 1.426-.065.631-.097 1.419-.097 2.363Z" fill="#1F1E1E"/>
        <path fill="transparent" d="M15 0h127v93H15z"/>
    </g>
    <g class="scene__table">
        <g class="scene__table-group" stroke="#1F1E1E">
            <path d="M27.5 185.5h40v93h-40z"/>
            <circle cx="12" cy="197" r="11.5"/>
            <circle cx="83" cy="198" r="11.5"/>
            <circle cx="12" cy="230" r="11.5"/>
            <circle cx="83" cy="231" r="11.5"/>
            <circle cx="12" cy="263" r="11.5"/>
            <circle cx="83" cy="264" r="11.5"/>
            <circle cx="48" cy="294" r="11.5"/>
        </g>
        <path class="scene__table-num" d="M45.2 241h-3.917v-7.559c0-.918.02-1.757.059-2.519-.241.293-.54.599-.899.918l-1.62 1.338-2.003-2.461 4.903-3.994h3.476V241Zm11.718 0h-3.916v-7.559c0-.918.02-1.757.058-2.519a8.36 8.36 0 0 1-.898.918l-1.621 1.338-2.002-2.461 4.902-3.994h3.477V241Z" fill="#1F1E1E"/>
        <path opacity=".01" fill="transparent" d="M0 185h95v121H0z"/>
    </g>
</g></symbol></svg>